<?xml version="1.0" encoding="utf-8"?>
<!-- Generator: Adobe Illustrator 24.2.0, SVG Export Plug-In . SVG Version: 6.00 Build 0)  -->
<svg version="1.1" id="katman_1" xmlns="http://www.w3.org/2000/svg" xmlns:xlink="http://www.w3.org/1999/xlink" x="0px" y="0px"
	 viewBox="0 0 1000 1000" style="enable-background:new 0 0 1000 1000;" xml:space="preserve">
<style type="text/css">
	.st0{fill:#B37D03;}
	.st1{fill:#FFFFFF;}
	.st2{fill:#FF0000;}
</style>
<g>
	<g>
		<g>
			<path class="st0" d="M208.8,203.7v490.2c0,0-6.9,129.7,235.3,192.9c0,0,44.8,10.3,91.8-1.1c47.1-11.5,235.3-67.7,235.3-191.7
				s0-490.2,0-490.2S474,127.9,208.8,203.7z"/>
			<path d="M227.8,203.7v490.2c0,0-6.4,129.7,219.5,192.9c0,0,41.8,10.3,85.7-1.1c43.9-11.5,219.5-67.7,219.5-191.7s0-490.2,0-490.2
				S475.1,127.9,227.8,203.7z"/>
			<path class="st1" d="M248.4,205.8V696c0,0-6,129.7,203.6,192.9c0,0,38.7,10.3,79.5-1.1C572.3,876.2,735.2,820,735.2,696
				s0-490.2,0-490.2S477.9,130.1,248.4,205.8z"/>
			<path class="st2" d="M261.6,202.8V504c275.4-63.9,427.6-197,458-225.8c0-45.4,0-75.3,0-75.3S477.6,129,261.6,202.8z M453.3,868.5
				c0,0,36.5,10.1,74.8-1.1c38.3-11.2,191.6-66,191.6-186.8V514.1C509,666.9,287.7,718.3,269.7,722.3
				C285,764.7,328.6,829.6,453.3,868.5z"/>
		</g>
		<g>
			<path class="st0" d="M371.8,345.5c0,0-23,16.6-23,44.2c0,0-14.9-14.9-26.4-51.7c0,0-23,5.2-22.4,48.2c0,0-12.6-4-17.2-10.3
				c0,0-12.1,29.8,1.7,63.1l-17.8-5.2c0,0-11.5,20.1,12.6,46.5c0,0-17.8,22.4,13.8,41.3c0,0-13.8,27,28.1,37.9
				c0,0-6.9,36.2,121.1,50.5c25.3,0.6,1.7,11.5-10.3,13.8c-12.1,2.3-52.2,4.6-74-24.1c0,0-14.9,10.9-8,27.6c0,0-9.2,20.7,2.3,36.2
				c0,0,41.3,55.7,68.3,35c27-20.7,29.8-19.5,29.8-19.5v37.3c0,0,13.8,8,9.8,14.9c-4,6.9-8,16.6,3.4,15.5c11.5-1.1,13.8,0,13.8,0
				s1.1,12.6,10.3,10.9c9.2-1.7,22.4-21.8,6.9-32.1c0,0-9.2-4-5.7-13.2c3.4-9.2,7.5,1.7,8.6,4.6c1.1,2.9,7.5,9.2,16.1-0.6
				c0,0,12.1,2.9,16.1-3.4c4-6.3,1.7-16.1-2.3-19.5c-4-3.4-18.4-15.5-18.4-15.5s21.8-37.3,82.1-71.2c0,0,11.1-10.2,22-0.4
				c0,0,18.5-36.2-49.5-33.1c0,0,35.6-50.2,57.4-81.8c21.8-31.6,78.1-80.4,93-87.8c0,0-17.8-13.2-48.2,8c0,0,45.3-53.4,58.5-63.1
				c0,0-58-9.2-101.6,79.2c0,0,9.8-41.3,40.2-70c0,0-17.2-16.6-54.5,27l1.1-18.9c0,0-28.7,8-41.3,37.9l-6.9-16.1
				c0,0-20.4,17.5-24.1,41.9l-12.1-6.9c0,0-15.5,23-11.5,48.2h-14.9c0,0-6.3,52.2-2.9,66.6c0,0-25.8-17.2-33.9-23.5
				C453.9,507.3,406.3,488.4,371.8,345.5z"/>
			<path d="M386.2,624.1c0,0-22.4,1.7-30.1-5.2c-7.7-6.9,1.7-15.5,6.9-9.5C368.1,615.5,381,624.1,386.2,624.1z"/>
		</g>
		<path d="M714.2,354.6c0,0-57.7,7.7-84.4,69.7c-7.7,17.2-15.5,11.2-10.3-6c5.2-17.2,25.8-49.1,37.9-58.5c0,0-45.6,14.6-60.3,66.3
			c-4.3,20.7-9.5,10.3-9.5,0.9s7.7-40.5,17.2-49.9c0,0-28.4,5.2-37,59.4c-0.9,18.1-6.9,11.2-6.9,0.9c0-10.3,0.9-37.9,0.9-37.9
			s-21.5,17.2-19.8,49.1c0,16.4-6.9,12.1-8.6,5.2c-1.7-6.9-3.4-15.5-3.4-15.5s-11.2,12.9-8.6,42.2c0.9,12.9-7.7,18.9-19.8-2.6
			c0,0-6.8,56.3,1.4,68.4c8.1,11.9,8.3,13.3,10.1,16.5c2,3.5,6.5,26.2,1.4,10.7c-5.2-15.5-18.1-27.6-25-31.9
			c-6.9-4.3-93-43-119.7-179.9c0,0-19.8,20.7-6,63.7c0,0-13.8,9.5-43.9-70.6c0,0-31.9,33.6,17.2,81.8c25.8,19.8,3.4,20.7-12.9,3.4
			S288,389.9,288,389.9s-12.1,52.5,43,79.2c18.9,12.1,12.9,20.7-6,10.3c-18.9-10.3-44.8-30.1-44.8-30.1s-6,37,45.6,48.2
			c24.1,6.9,25,19.8,9.5,18.9c-15.5-0.9-46.5-18.1-51.7-22.4c0,0,0,31.9,49.9,37.9c20.7,1.7,21.5,12.1,5.2,11.2
			c-16.4-0.9-41.3-12.1-41.3-12.1s3.4,25.8,53.4,26.7c17.2,0,16.4,12.1-0.9,11.2c-17.2-0.9-21.5-1.7-21.5-1.7s25,34.4,117.1,37.9
			c29.3,0.9,9.5,9.5,5.2,13.8c-4.3,4.3-18.9,15.5-36.2,15.5s-59.4,1.7-59.4,1.7l-0.9,20.7c0,0,18.1,0,25.8-3.4
			c7.7-3.4,14.6,1.7,6.9,8.6c-7.7,6.9-26.7,6-26.7,6s32.7,34.4,48.2,25c15.5-9.5,34.4-20.7,41.3-26.7s14.6-6.9,12.1,6.9
			c-2.6,13.8-6,38.7,1.7,44.8c7.7,6,11.2,13.8,2.6,18.9c0,0,16.4-2.6,18.9,5.2c2.6,7.7,6.9,4.3,7.7-1.7c0.9-6-4.3-10.3-9.5-12.9
			c-5.2-2.6-7.7-12.1-1.7-26.7c1.4-3.5,7.2-11.7,15.7-22c1.2,4.1,2.4,9.6,1.5,13.4c-1.7,6.9-1.7,17.2,5.2,12.1
			c6.9-5.2,8.6-6.9,9.9-1.7c1.3,5.2,8.6,7.3,10.3,1.3c1.7-6-6-9-11.2-9.9c-5.2-0.9-6.9-4.7-7.7-10.8c-0.4-3.1-1.3-7.6-2.1-11.3
			C532,638.6,581.9,591.4,610,600c0,0,6.5-24.5-35.3-23.2c-29.5,0.9-29-1.6-29-6.2c0-2,4.6-2.3,19.5-5.9c0,0,21.5-22.4,41.3-62
			c19.8-39.6,87-92.1,97.3-95.6c0,0-27.6,0-45.6,12.1C658.2,419.2,678.9,380.5,714.2,354.6z M369,436.1c0,0,13.2,35,29.3,51.1
			C398.2,487.2,355.8,471.2,369,436.1z M364.9,503.3c5.2,6.3,33.9,18.4,33.9,18.4C359.2,528.6,364.9,503.3,364.9,503.3z
			 M364.9,472.3c7.5,15.5,33.9,32.7,33.9,32.7C352.9,505.6,364.9,472.3,364.9,472.3z M588.2,583.1c2.5,0,4.6,1.9,4.6,4.3
			c0,2.4-2.1,4.3-4.6,4.3c-2.5,0-4.6-1.9-4.6-4.3C583.6,585,585.7,583.1,588.2,583.1z M547.5,606.6c0,2.9-2.2,5.2-4.9,5.2
			c-2.7,0-4.9-2.3-4.9-5.2c0-2.9,2.2-5.2,4.9-5.2C545.3,601.5,547.5,603.8,547.5,606.6z M540.3,598.6c-2.7,0-4.9-2.2-4.9-4.9
			c0-2.7,2.2-4.9,4.9-4.9c2.7,0,4.9,2.2,4.9,4.9C545.2,596.4,543,598.6,540.3,598.6z M544.6,578.8c0,3-2.3,5.5-5.2,5.5
			c-2.9,0-5.2-2.4-5.2-5.5c0-3,2.3-5.5,5.2-5.5C542.3,573.3,544.6,575.8,544.6,578.8z"/>
		<path class="st1" d="M548.6,227.8c-17.2-27.6-16.4-13.2-17.2-4.6c-2.3,25.3,6.9,43,6.9,43c-1.1-45.9,13.8-32.7,14.9,8
			c1.1,40.8-23.5,24.1-23.5,24.1s5.7-28.1-4-55.1c0,0-26.4-1.7-11.5,54.5c0,0-27.6,25.8-35-18.9c0,0,26.4-16.1,20.7-40.8
			c-5.7-24.7-40.8-47.6-42.5,0.6c0,0,2.9,26.4,6.9,4c4-22.4,17.8-30.4,27,5.7c0,0-23.5-32.7-20.1,20.1c0,0-47.6,29.8-56.8-8.6
			c0,0,0.6-7.5-1.7-20.7c-2.3-13.2-1.7-10.9-3.4-21.8c-1.7-10.9-10.9-9.2-9.2,9.2s3.4,21.8-1.7,28.1c-5.2,6.3-25.8,34.4-6.9,36.7
			c10.3-2.9,12.1,4.6,8.6,13.8c-3.4,9.2-28.7,9.8-36.2-1.7c-7.5-11.5-1.1-25.3,2.3-32.1c3.4-6.9,20.1-30.4,17.8-41.3
			c-2.3-10.9-7.5-14.4-9.8,0.6c-2.3,14.9-10.3,26.4-14.3,31.6c-4,5.2-14.9,33.3,0.6,56.8c15.5,23.5,47.1,0,50.5-10.3
			c3.4-10.3,1.1-19.5-2.9-23.5c-4-4-13.2-6.9-9.2-14.9c4-8,8-11.5,8.6-2.3s15.5,44.2,62.6,16.6c0,0,16.1,66,53.4,27
			C576.2,339.1,565.8,255.3,548.6,227.8z M485.5,253.6l-6.9,5.7C478.6,259.4,475.2,243.3,485.5,253.6z M519.9,287.5
			c0,0-8-8.6,0.6-24.7C520.5,262.8,528.5,276.6,519.9,287.5z M585.9,227.8c-18.5-26.7-16.4-13.2-17.2-4.6c-2.3,25.3,6.9,43,6.9,43
			c-1.1-45.9,15.8-32.7,14.9,8c-1.1,54.5-61.4,46.8-61.4,46.8C610,357.2,611.8,265.1,585.9,227.8z"/>
		<path class="st1" d="M510.2,217.3c-4.2,4.6-6.9,11.6,0,11.6c6.9,0,5.6,3,1.3,6s-0.4,5.6,5.6,2.2c6-3.4,10.8-12.5,3.4-11.6
			c-7.3,0.9-3-4.7-1.3-6.9C520.9,216.5,517.9,208.7,510.2,217.3z"/>
		<g>
			<path class="st1" d="M392.3,769.1h9.4l14.1,44.9h-9l-2.6-9.2h-14.6l-2.7,9.2h-8.7L392.3,769.1z M391.7,797h10.2l-5-17.7
				L391.7,797z"/>
			<path class="st1" d="M420.8,769.1h8.3v36.8h19.8v8.1h-28.1V769.1z"/>
			<path class="st1" d="M478.2,769.1h9.4l14.1,44.9h-9l-2.6-9.2h-14.6l-2.7,9.2H464L478.2,769.1z M477.7,797h10.2l-5-17.7L477.7,797
				z"/>
			<path class="st1" d="M506.6,814v-44.9h8.2v17.1h15.4v-17.1h8.2V814h-8.2v-20h-15.4v20H506.6z"/>
			<path class="st1" d="M546.6,769.1h8.3v36.8h19.8v8.1h-28.1V769.1z"/>
			<path class="st1" d="M597.9,769.1h9.4L594,797.2V814h-8.3v-16.8l-13.7-28.1h9.8l8.2,19.5L597.9,769.1z"/>
		</g>
		<g>
			<path class="st1" d="M467.9,823.1v38.5h-8.5v-20.6c0-3-0.1-4.8-0.2-5.4c-0.1-0.6-0.5-1.1-1-1.4c-0.6-0.3-1.8-0.5-3.8-0.5h-0.8
				v-4.5c4.1-1,7.2-3.1,9.4-6.2H467.9z"/>
			<path class="st1" d="M471.2,851.3h8.5c0,1.8,0,2.9,0.1,3.4c0,0.5,0.2,0.9,0.5,1.2c0.3,0.3,0.7,0.5,1.2,0.5c0.4,0,0.8-0.2,1.1-0.5
				c0.3-0.3,0.4-0.7,0.5-1.2c0-0.5,0.1-1.4,0.1-2.9v-6.1c-0.4,1-1.1,1.8-1.9,2.3c-0.8,0.5-1.9,0.8-3.1,0.8c-1.6,0-2.9-0.5-4.1-1.4
				c-1.2-1-1.9-2.1-2.3-3.4c-0.3-1.3-0.5-3.1-0.5-5.4v-3.1c0-2.7,0.1-4.7,0.3-6c0.2-1.3,0.7-2.5,1.5-3.6c0.8-1.1,1.9-2,3.3-2.6
				c1.4-0.6,3-0.9,4.8-0.9c2.3,0,4.1,0.4,5.6,1.1c1.5,0.7,2.6,1.7,3.4,3.1c0.8,1.3,1.3,2.7,1.4,4.2c0.1,1.5,0.2,4.3,0.2,8.6v5.3
				c0,4.6-0.1,7.6-0.2,9.2c-0.1,1.5-0.6,3-1.5,4.4c-0.9,1.4-2,2.4-3.5,3.1c-1.5,0.7-3.2,1-5.1,1c-2.4,0-4.4-0.4-5.9-1.3
				c-1.5-0.9-2.6-2.1-3.3-3.7C471.6,855.7,471.2,853.7,471.2,851.3z M479.7,839.3c0,1.6,0.2,2.6,0.6,3c0.4,0.4,0.8,0.6,1.1,0.6
				c0.6,0,1-0.2,1.3-0.7c0.3-0.5,0.4-1.4,0.4-2.8v-7c0-1.7-0.1-2.8-0.4-3.3c-0.3-0.5-0.7-0.8-1.3-0.8c-0.4,0-0.7,0.2-1.1,0.6
				c-0.4,0.4-0.6,1.5-0.6,3.3V839.3z"/>
			<path class="st1" d="M514.6,836.1v12.8c0,2.9-0.1,5-0.4,6.4c-0.3,1.3-0.9,2.6-1.7,3.7c-0.9,1.2-2,2-3.2,2.5
				c-1.2,0.5-2.6,0.8-4.2,0.8c-2,0-3.7-0.3-5.1-0.8c-1.3-0.5-2.4-1.4-3.2-2.5c-0.8-1.1-1.4-2.3-1.7-3.6c-0.3-1.2-0.5-3.2-0.5-5.9
				v-13.4c0-3.5,0.3-6.2,0.8-7.9c0.5-1.8,1.6-3.2,3.2-4.2c1.6-1.1,3.6-1.6,5.8-1.6c1.9,0,3.5,0.4,5,1.1c1.5,0.7,2.6,1.6,3.3,2.7
				c0.7,1.1,1.2,2.3,1.5,3.6C514.5,831,514.6,833.2,514.6,836.1z M506.1,832.8c0-2-0.1-3.3-0.3-3.8c-0.2-0.5-0.6-0.8-1.2-0.8
				c-0.6,0-1,0.3-1.3,0.8c-0.2,0.5-0.3,1.8-0.3,3.8v18.8c0,2.2,0.1,3.6,0.3,4c0.2,0.5,0.6,0.7,1.2,0.7c0.6,0,1-0.3,1.2-0.8
				c0.2-0.5,0.3-1.7,0.3-3.6V832.8z"/>
			<path class="st1" d="M532.6,823.1v8.4l-5.4,30.1h-8.5l6-31.6h-8.4v-6.9H532.6z"/>
		</g>
	</g>
	<g>
		<path d="M235.8,156.1l-13.7,3.5l-2.4-9.2c-0.7-2.7-1.3-4.3-1.7-4.9c-0.5-0.6-1.2-0.7-2.2-0.5c-1.1,0.3-1.7,0.9-1.8,1.8
			c-0.1,0.9,0.2,2.7,0.9,5.3l6.3,24.5c0.7,2.6,1.2,4.2,1.8,4.9c0.5,0.7,1.3,0.9,2.4,0.6c1-0.3,1.6-0.8,1.7-1.7
			c0.1-0.9-0.2-2.7-1-5.6l-1.7-6.6l13.7-3.5l0.5,2.1c1.4,5.5,2,9.4,1.8,11.9c-0.2,2.5-1.4,4.9-3.6,7.3c-2.2,2.4-5.2,4.1-9.1,5.1
			c-4,1-7.5,1.2-10.5,0.4c-3-0.8-5.2-2.3-6.7-4.7c-1.5-2.4-2.9-6.1-4.3-11.3l-4-15.4c-1-3.8-1.6-6.7-1.8-8.6c-0.2-2,0.1-4,0.9-6.1
			c0.8-2.1,2.3-3.9,4.3-5.5c2-1.6,4.5-2.8,7.5-3.6c4-1,7.6-1.1,10.6-0.2c3,0.9,5.3,2.4,6.7,4.5c1.4,2.1,2.8,5.6,4,10.6L235.8,156.1z
			"/>
		<path d="M250.9,128.6l9.2,42.6l8.4-1.8l2.3,10.7l-22.3,4.8L237,131.6L250.9,128.6z"/>
		<path d="M296.3,120.1l6.3,35.8c0.7,4.1,1.1,6.9,1.1,8.6c0,1.7-0.5,3.5-1.5,5.5c-1,2-2.5,3.6-4.5,4.9c-2,1.3-4.4,2.2-7.3,2.7
			c-3.2,0.6-6.1,0.5-8.8-0.1c-2.6-0.6-4.7-1.7-6.2-3.2c-1.5-1.5-2.5-3.2-3.1-5c-0.6-1.8-1.4-5.8-2.4-11.8l-5.6-31.7l13.9-2.5
			l7.1,40.2c0.4,2.3,0.8,3.8,1.2,4.4c0.4,0.6,0.9,0.8,1.7,0.7c0.9-0.2,1.4-0.6,1.5-1.4c0.1-0.8,0-2.5-0.5-5.2l-7-39.5L296.3,120.1z"
			/>
		<path d="M304,118.9l14-1.9c4.4-0.6,7.8-0.7,10.2-0.3c2.4,0.4,4.4,1.5,6.1,3.4c1.7,1.9,2.8,5.2,3.5,9.9c0.4,3.2,0.2,5.4-0.6,6.8
			c-0.8,1.4-2.6,2.6-5.5,3.7c3.3,0.3,5.7,1.2,7.1,2.8c1.4,1.5,2.3,4.1,2.8,7.6l0.7,5c0.5,3.6,0.4,6.4-0.2,8.3
			c-0.6,1.9-1.8,3.2-3.5,4.1c-1.7,0.9-5.4,1.7-11.1,2.5l-16.2,2.2L304,118.9z M319.2,126.2l1.6,12c0.6-0.1,1.1-0.2,1.4-0.2
			c1.4-0.2,2.2-0.6,2.5-1.4c0.3-0.7,0.2-2.7-0.2-5.9c-0.2-1.7-0.5-2.9-0.9-3.5c-0.4-0.6-0.9-1-1.4-1.1
			C321.7,126,320.7,126.1,319.2,126.2z M322,146.6l2,15.1c2-0.3,3.2-0.8,3.7-1.4s0.6-2,0.3-4.2l-0.7-5c-0.3-2.3-0.7-3.7-1.3-4.1
			C325.4,146.5,324.1,146.4,322,146.6z"/>
		<path d="M391.4,141.4c0.5,5.5,0.7,9.3,0.6,11.6c-0.1,2.3-0.7,4.4-1.9,6.4c-1.2,2-2.9,3.6-5.1,4.8c-2.2,1.2-4.9,1.9-7.9,2.2
			c-2.9,0.2-5.6,0-7.9-0.8c-2.4-0.8-4.4-2-5.9-3.8c-1.6-1.8-2.6-3.8-3-6c-0.5-2.2-0.9-6.1-1.4-11.7l-0.8-9.3
			c-0.5-5.5-0.7-9.3-0.6-11.6c0.1-2.3,0.7-4.4,1.9-6.4c1.2-2,2.9-3.6,5.1-4.8c2.2-1.2,4.9-1.9,7.9-2.2c2.9-0.2,5.6,0,7.9,0.8
			c2.4,0.8,4.4,2,5.9,3.8c1.6,1.8,2.6,3.8,3,6c0.5,2.2,0.9,6.1,1.4,11.7L391.4,141.4z M375.8,124.8c-0.2-2.5-0.5-4.1-0.8-4.8
			c-0.3-0.7-0.9-1-1.8-0.9c-0.7,0.1-1.3,0.4-1.6,1c-0.3,0.6-0.4,2.3-0.2,5.1l2.1,25.3c0.3,3.2,0.6,5.1,0.9,5.8c0.3,0.7,0.9,1,1.9,1
			c1-0.1,1.5-0.6,1.7-1.4c0.2-0.9,0.2-2.9-0.1-6.1L375.8,124.8z"/>
		<path d="M395.6,109.3l23.9-1.3l0.6,10.9l-9.8,0.5l0.6,10.3l8.7-0.5l0.6,10.3l-8.7,0.5l1.2,22.8l-14.1,0.8L395.6,109.3z"/>
		<path d="M465.5,106.9l0.2,10.9l-8.4,0.1l0.8,43.5l-14.2,0.3l-0.8-43.5l-8.4,0.1l-0.2-10.9L465.5,106.9z"/>
		<path d="M503,107.2l-0.6,54.4l-14.2-0.2l0.2-22.9l-4.2,0l-0.2,22.9l-14.2-0.2l0.6-54.4l14.2,0.2l-0.2,19.5l4.2,0l0.2-19.5
			L503,107.2z"/>
		<path d="M510,107.4l23.6,0.9l-0.4,10.9l-9.4-0.3l-0.4,10.3l8.8,0.3l-0.4,10.4l-8.8-0.3l-0.4,12l10.4,0.4l-0.4,10.9l-24.5-0.9
			L510,107.4z"/>
		<path d="M583.8,135.2l-14.1-1l0.7-9.4c0.2-2.7,0.2-4.5-0.1-5.2c-0.3-0.7-0.9-1.1-1.9-1.2c-1.2-0.1-1.9,0.3-2.3,1.1
			c-0.4,0.8-0.7,2.6-0.8,5.3l-1.8,25.2c-0.2,2.6-0.1,4.4,0.1,5.2c0.3,0.8,0.9,1.3,2,1.4c1.1,0.1,1.8-0.3,2.1-1.1
			c0.4-0.8,0.7-2.7,0.9-5.6l0.5-6.8l14.1,1l-0.1,2.1c-0.4,5.6-1.1,9.6-2,11.9c-1,2.3-2.9,4.2-5.7,5.8c-2.8,1.6-6.3,2.2-10.2,1.9
			c-4.1-0.3-7.5-1.3-10.1-3c-2.6-1.7-4.2-3.9-4.9-6.6c-0.7-2.7-0.8-6.7-0.5-12.1l1.1-15.9c0.3-3.9,0.6-6.8,1-8.8
			c0.4-1.9,1.3-3.8,2.8-5.5c1.5-1.7,3.4-3,5.8-3.9c2.4-0.9,5.2-1.2,8.2-1c4.2,0.3,7.5,1.3,10.1,3.1c2.6,1.8,4.2,3.9,4.9,6.4
			c0.7,2.5,0.8,6.2,0.5,11.3L583.8,135.2z"/>
		<path d="M591.9,112.2l23.5,2.2l-1,10.8l-9.4-0.9l-1,10.3l8.8,0.8l-1,10.3l-8.8-0.8l-1.1,11.9l10.3,1l-1,10.8l-24.4-2.3
			L591.9,112.2z"/>
		<path d="M653,118.7l-6.4,54.1l-12.3-1.4l-4.4-25.4l-2.9,24.6l-11.8-1.4l6.4-54.1l11.8,1.4l5,25.3l2.9-24.3L653,118.7z"/>
		<path d="M688.2,123.6l-1.5,10.8l-8.3-1.2l-6.1,43.1l-14-2l6.1-43.1l-8.3-1.2l1.5-10.8L688.2,123.6z"/>
		<path d="M724.4,129.7l-6,35.9c-0.7,4.1-1.3,6.9-1.8,8.5c-0.5,1.6-1.6,3.2-3.2,4.7c-1.6,1.5-3.5,2.5-5.8,3.1
			c-2.3,0.5-4.9,0.6-7.8,0.1c-3.2-0.5-5.9-1.5-8.2-3c-2.3-1.5-3.9-3.2-4.8-5.1c-0.9-1.9-1.3-3.8-1.3-5.8c0.1-1.9,0.7-5.9,1.7-12
			l5.3-31.8l14,2.3l-6.8,40.3c-0.4,2.3-0.5,3.9-0.4,4.6c0.1,0.7,0.6,1.1,1.4,1.2c0.9,0.1,1.5-0.1,1.9-0.8c0.4-0.7,0.8-2.4,1.2-5
			l6.6-39.6L724.4,129.7z"/>
		<path d="M731.4,130.9l9.8,2c6.6,1.3,10.9,2.4,13.2,3.4c2.2,1,3.9,2.6,4.9,5c1,2.4,1.1,5.8,0.2,10.4c-0.8,4.2-1.9,6.8-3.2,8.1
			c-1.3,1.2-3.5,1.7-6.6,1.4c2.6,1.2,4.3,2.5,5,3.8c0.7,1.3,1.1,2.5,1.1,3.5c0,1-0.4,3.7-1.2,8l-2.8,14.1l-12.9-2.6l3.5-17.7
			c0.6-2.9,0.7-4.7,0.4-5.4c-0.3-0.8-1.4-1.3-3.3-1.7l-4.8,24.1l-13.9-2.8L731.4,130.9z M743.5,142.8l-2.4,11.9
			c1.6,0.3,2.7,0.3,3.4,0c0.7-0.3,1.3-1.6,1.8-4l0.6-2.9c0.3-1.7,0.3-2.9-0.2-3.5C746.2,143.6,745.1,143.1,743.5,142.8z"/>
		<path d="M799.6,146l-18.3,31.3l-4.7,19.1l-12.7-3.1l4.7-19.1l-1.3-36.1l12.6,3.1c-0.6,10.8-1.2,18-1.8,21.7
			c2.2-5.5,5.1-12.1,9-19.9L799.6,146z"/>
	</g>
</g>
</svg>
