<svg xmlns="http://www.w3.org/2000/svg" width="103.336" height="112.813" viewBox="0 0 103.336 112.813">
  <g id="popcorn" transform="translate(-21.504 0)">
    <g id="Group_3813" data-name="Group 3813" transform="translate(21.504 24.054)">
      <g id="Group_3812" data-name="Group 3812">
        <path id="Path_3588" data-name="Path 3588" d="M40.232,115.474a6.305,6.305,0,0,0-10.388-4.8,6.3,6.3,0,0,0-4.161,11.9,6.3,6.3,0,0,0,12.346-2.311A6.314,6.314,0,0,0,40.232,115.474Zm-4.837,2.615-1.162.653.392,1.274a3,3,0,1,1-5.854,1.1l-.095-1.323-1.312-.194a3,3,0,1,1,2-5.527l1.274.777.9-1.188a3,3,0,1,1,3.854,4.425Z" transform="translate(-21.504 -109.171)" fill="#fff"/>
      </g>
    </g>
    <g id="Group_3815" data-name="Group 3815" transform="translate(39.55 3.415)">
      <g id="Group_3814" data-name="Group 3814" transform="translate(0)">
        <path id="Path_3589" data-name="Path 3589" d="M121.715,21.3a5.8,5.8,0,0,0-9.484-4.485,5.8,5.8,0,0,0-7.55,6.113,5.8,5.8,0,0,0,7.369,8.683,5.8,5.8,0,0,0,7.73-5.471q0-.25-.021-.5A5.811,5.811,0,0,0,121.715,21.3Zm-4.581,2.177-1.162.653.392,1.274a2.5,2.5,0,0,1-3.643,2.892l-1.01-.591-.893.756a2.463,2.463,0,0,1-1.611.59,2.5,2.5,0,0,1-1.655-4.364l.772-.685-.277-.994a2.5,2.5,0,0,1,3.7-2.8l1.274.777.9-1.188a2.5,2.5,0,1,1,3.209,3.685Z" transform="translate(-103.406 -15.499)" fill="#fff"/>
      </g>
    </g>
    <g id="Group_3817" data-name="Group 3817" transform="translate(106.531 15.645)">
      <g id="Group_3816" data-name="Group 3816">
        <path id="Path_3590" data-name="Path 3590" d="M425.711,76.8a5.8,5.8,0,0,0-9.484-4.485,5.8,5.8,0,0,0-7.55,6.113,5.8,5.8,0,0,0,7.369,8.683,5.8,5.8,0,0,0,7.73-5.471c0-.166-.007-.332-.021-.5A5.81,5.81,0,0,0,425.711,76.8Zm-4.581,2.178-1.162.653.392,1.274a2.5,2.5,0,0,1-3.644,2.891l-1.01-.591-.893.756a2.463,2.463,0,0,1-1.611.59,2.5,2.5,0,0,1-1.655-4.364l.772-.685-.276-.994a2.5,2.5,0,0,1,3.7-2.8l1.274.777.9-1.188a2.5,2.5,0,1,1,3.209,3.685Z" transform="translate(-407.402 -71.004)" fill="#fff"/>
      </g>
    </g>
    <g id="Group_3819" data-name="Group 3819" transform="translate(90.034 0)">
      <g id="Group_3818" data-name="Group 3818">
        <path id="Path_3591" data-name="Path 3591" d="M349.748,7.173a6.248,6.248,0,0,0-3.537-2.536,6.3,6.3,0,0,0-12.18,3.245,6.33,6.33,0,0,0-.417,7.629,6.261,6.261,0,0,0,4.032,2.649,6.37,6.37,0,0,0,1.195.114,6.32,6.32,0,0,0,4.04-1.478,6.314,6.314,0,0,0,5.2-.868h0A6.31,6.31,0,0,0,349.748,7.173Zm-2.268,4.1a2.979,2.979,0,0,1-1.26,1.918h0a3,3,0,0,1-3.024.2L342,12.8l-.833,1.04a3.008,3.008,0,0,1-.657.606,3,3,0,0,1-3.545-4.829l1.041-.822L337.431,7.6a3.012,3.012,0,0,1,1.017-3.78,2.977,2.977,0,0,1,1.678-.519,3.033,3.033,0,0,1,.568.054,3,3,0,0,1,2.433,2.793l.073,1.491,1.49.079a3,3,0,0,1,2.79,3.555Z" transform="translate(-332.532 0)" fill="#fff"/>
      </g>
    </g>
    <g id="Group_3821" data-name="Group 3821" transform="translate(36.968 14.323)">
      <g id="Group_3820" data-name="Group 3820">
        <path id="Path_3592" data-name="Path 3592" d="M162.376,97.113a5.821,5.821,0,0,0-.594-2.555,5.807,5.807,0,0,0-4.062-8.25,5.8,5.8,0,0,0-7.827-7.518,7.612,7.612,0,0,0-6.757-1.957,5.785,5.785,0,0,0-1.53-1.093,6.3,6.3,0,0,0-8.566-9.233,6.317,6.317,0,0,0-5.466.675,6.3,6.3,0,0,0-10.5,5.854,5.815,5.815,0,0,0-4.7,4.993,6.855,6.855,0,0,0-5.936,1.079,5.8,5.8,0,0,0-7.57,6.106,5.816,5.816,0,0,0-.626,6.3,6.3,6.3,0,0,0-4.327,10.5,9.97,9.97,0,0,0-2.2,7.08l8.989,54.4h51.717l8.973-54.262.017-.135a9.966,9.966,0,0,0-1.185-5.571,6.367,6.367,0,0,0,.2-1.574q0-.249-.021-.5A5.808,5.808,0,0,0,162.376,97.113Zm-58.859,63.075h0l-8.5-51.426a6.635,6.635,0,0,1,6.618-7.109h.069a6.614,6.614,0,0,1,6.629,6.379v.033l.016.2q0,.2.007.4l4.091,51.518Zm12.244,0-4.109-52.037a6.635,6.635,0,0,1,6.633-6.5,6.642,6.642,0,0,1,6.634,6.634v51.9Zm12.464,0h0v-51.9a6.635,6.635,0,0,1,11.415-4.6,6.571,6.571,0,0,1,1.853,4.463l-4.109,52.037Zm29.906-51.426-8.5,51.426H140.7l4.087-51.451,0-.067q.008-.2.007-.406l.013-.165,0-.067a6.614,6.614,0,0,1,6.629-6.379h.069a6.634,6.634,0,0,1,6.617,7.109Zm-.338-9.473-1.015.571a9.963,9.963,0,0,0-5.265-1.512h-.069a9.909,9.909,0,0,0-8.3,4.448,10.093,10.093,0,0,0-1.127-1.4,9.935,9.935,0,0,0-15.449,1.409,9.936,9.936,0,0,0-15.449-1.409A10.085,10.085,0,0,0,110,102.8a9.909,9.909,0,0,0-8.3-4.448h-.069A9.964,9.964,0,0,0,96.4,99.836a3,3,0,0,1,3.766-4.589l1.272.775.9-1.186a3.03,3.03,0,0,1,.717-.676l2.821-1.91-3.246-1.033a2.495,2.495,0,0,1-.894-4.244l.773-.685-.278-1a2.5,2.5,0,0,1,3.7-2.8l1.274.778.9-1.189a2.94,2.94,0,0,1,2.129-.994,4.424,4.424,0,0,1,3.175,1.265,5.066,5.066,0,0,0,.555.412l1.285.777.888-1.194.81-1.065-.787-1a2.471,2.471,0,0,1-.531-1.538,2.5,2.5,0,0,1,2.469-2.5l.931.053.532-.692a2.976,2.976,0,0,1,.51-.522l1.04-.822-.577-1.194a3,3,0,0,1,5.18-2.988,2.817,2.817,0,0,1,.163.276l1.179,2.26,1.582-2a3,3,0,0,1,3.91-.707l1.272.775.9-1.185a3,3,0,1,1,3.856,4.423l-1.159.65.387,1.272a3.061,3.061,0,0,1,.133.856c0,.044,0,.089,0,.135v1.446l1.434.191a2.49,2.49,0,0,1,1.77,1.134l.722,1.131,1.255-.475a4.3,4.3,0,0,1,5.08,1.631l1.071,1.6,1.418-1.3a2.5,2.5,0,1,1,2.909,4.014l-1.168.657.4,1.279a2.265,2.265,0,0,1,.085.415l.285,2.454,2.159-1.2a2.5,2.5,0,0,1,3.17,3.725l-.8,1.021.8,1.019a2.46,2.46,0,0,1,.53,1.536A2.5,2.5,0,0,1,157.793,99.29Z" transform="translate(-91.69 -65.005)" fill="#fff"/>
      </g>
    </g>
    <g id="Group_3823" data-name="Group 3823" transform="translate(59.621 29.636)">
      <g id="Group_3822" data-name="Group 3822">
        <path id="Path_3593" data-name="Path 3593" d="M212.348,136.266a4.827,4.827,0,0,0-1.425.213,6.169,6.169,0,0,0-10.553,2.879,6.177,6.177,0,0,0-5.87,6.162h3.305a2.855,2.855,0,0,1,3.652-2.751l2.372.678L203.555,141a2.9,2.9,0,0,1-.02-.323,2.863,2.863,0,0,1,5.4-1.323l.913,1.745,1.56-1.2a1.527,1.527,0,0,1,.938-.322,1.544,1.544,0,0,1,1.542,1.542H217.2A4.853,4.853,0,0,0,212.348,136.266Z" transform="translate(-194.501 -134.503)" fill="#fff"/>
      </g>
    </g>
    <g id="Group_3825" data-name="Group 3825" transform="translate(76.807 37.457)">
      <g id="Group_3824" data-name="Group 3824" transform="translate(0)">
        <path id="Path_3594" data-name="Path 3594" d="M284.179,170a5.749,5.749,0,0,0-4.212,1.855,5.619,5.619,0,0,0-7.466,5.306h3.3a2.316,2.316,0,0,1,2.314-2.314,2.288,2.288,0,0,1,1.384.465l1.62,1.217.866-1.832a2.421,2.421,0,0,1,4.613,1.032h3.305A5.735,5.735,0,0,0,284.179,170Z" transform="translate(-272.501 -170.003)" fill="#fff"/>
      </g>
    </g>
    <g id="Group_3827" data-name="Group 3827" transform="translate(43.603 57.299)">
      <g id="Group_3826" data-name="Group 3826" transform="translate(0 0)">
        <rect id="Rectangle_2208" data-name="Rectangle 2208" width="3.305" height="13.004" transform="translate(0 0.539) rotate(-9.393)" fill="#fff"/>
      </g>
    </g>
    <g id="Group_3829" data-name="Group 3829" transform="translate(48.822 88.859)">
      <g id="Group_3828" data-name="Group 3828" transform="translate(0 0)">
        <rect id="Rectangle_2209" data-name="Rectangle 2209" width="3.305" height="8.115" transform="matrix(0.987, -0.163, 0.163, 0.987, 0, 0.539)" fill="#fff"/>
      </g>
    </g>
    <g id="Group_3831" data-name="Group 3831" transform="translate(76.816 95.375)">
      <g id="Group_3830" data-name="Group 3830" transform="translate(0 0)">
        <rect id="Rectangle_2210" data-name="Rectangle 2210" width="4.301" height="3.305" transform="translate(0 4.288) rotate(-85.458)" fill="#fff"/>
      </g>
    </g>
    <g id="Group_3833" data-name="Group 3833" transform="translate(78.189 69.818)">
      <g id="Group_3832" data-name="Group 3832" transform="translate(0 0)">
        <rect id="Rectangle_2211" data-name="Rectangle 2211" width="12.599" height="3.305" transform="translate(0 12.56) rotate(-85.458)" fill="#fff"/>
      </g>
    </g>
    <g id="Group_3835" data-name="Group 3835" transform="translate(79.588 57.447)">
      <g id="Group_3834" data-name="Group 3834" transform="translate(0 0)">
        <rect id="Rectangle_2212" data-name="Rectangle 2212" width="7.329" height="3.305" transform="translate(0 7.306) rotate(-85.458)" fill="#fff"/>
      </g>
    </g>
  </g>
</svg>
