<svg xmlns="http://www.w3.org/2000/svg" width="128.604" height="110.678" viewBox="0 0 128.604 110.678">
  <g id="stadium" transform="translate(0 -35.682)">
    <g id="Group_2706" data-name="Group 2706" transform="translate(0 35.682)">
      <g id="Group_2705" data-name="Group 2705">
        <path id="Path_2766" data-name="Path 2766" d="M122.644,75.352c-10.52-5.149-31.462-7.1-43.18-7.7V64.366h2.42a3.2,3.2,0,0,0,3.191-3.191V56.541a1.884,1.884,0,1,0-3.768,0V60.6H47.3V43.693H59.883a1.884,1.884,0,0,0,0-3.768H52.91V37.567a1.884,1.884,0,1,0-3.768,0v2.358h-2.42a3.2,3.2,0,0,0-3.191,3.191V61.175a3.2,3.2,0,0,0,3.191,3.191h2.42v3.282C38.206,68.207,0,71.071,0,82.074c0,0,0,0,0,.005V123.4c0,2.524,2.005,4.786,5.961,6.722,9.755,4.775,28.586,6.777,39.365,7.481l-1.388,2.552a3.867,3.867,0,0,0,3.156,5.709,280.04,280.04,0,0,0,34.351-.048,3.9,3.9,0,0,0,3.17-5.755L83.279,137.6c10.36-.677,45.326-3.724,45.326-14.2V82.074C128.6,79.549,126.6,77.288,122.644,75.352ZM79.463,71.42c29.811,1.543,45.373,7.227,45.373,10.653,0,1.321-3.507,4.544-16.78,7.292-1.755.363-3.427.668-5.187.96a4.281,4.281,0,0,0,1.727-3.282c0-6.612-18.35-8.6-25.133-9.2ZM52.91,64.366H75.7v3.116c-7.42-.28-15.145-.288-22.786,0Zm0,6.886c7.4-.283,15.137-.292,22.786,0v6.307a185.145,185.145,0,0,0-22.786,0ZM51.025,83.958a1.884,1.884,0,0,0,1.884-1.884v-.736a179.8,179.8,0,0,1,22.786,0v.736a1.884,1.884,0,0,0,3.768,0v-.445a107.927,107.927,0,0,1,10.821,1.478c7.91,1.544,10.274,3.359,10.533,3.938-.259.579-2.624,2.394-10.533,3.938-14.542,2.838-37.4,2.842-51.964,0-7.91-1.544-10.274-3.359-10.534-3.938.259-.579,2.624-2.394,10.534-3.938a107.924,107.924,0,0,1,10.821-1.478v.445A1.884,1.884,0,0,0,51.025,83.958ZM3.768,82.071c0-1.322,3.516-4.543,16.78-7.289a194.81,194.81,0,0,1,28.594-3.362v6.424c-6.771.594-25.133,2.585-25.133,9.2a4.282,4.282,0,0,0,1.727,3.282c-1.8-.3-3.534-.618-5.187-.96-13.273-2.748-16.78-5.971-16.78-7.292Zm0,5.489c18.887,12.372,102.147,12.415,121.069,0v5.207c0,1.32-3.507,4.544-16.78,7.292-24.155,5-63.365,5-87.509,0-13.273-2.748-16.78-5.971-16.78-7.292ZM46.515,133.9c-29.266-1.8-42.747-7.44-42.747-10.5v-4.631c9.047,5.905,31.935,8.119,42.747,8.781Zm0-10.128c-28.8-1.786-42.747-7.32-42.747-10.5V108.72c9.032,5.9,31.866,8.115,42.747,8.781ZM81.2,142.05a276.258,276.258,0,0,1-33.881.047.1.1,0,0,1-.076-.147l2.238-4.113c9.7.484,19.957.483,29.634,0l2.186,4.018A.129.129,0,0,1,81.2,142.05ZM69.837,123.884H58.768a3.444,3.444,0,0,0-3.44,3.44v6.969c-1.22-.036-2.347-.064-5.045-.191V116.378a.242.242,0,0,1,.236-.237H78.086a.242.242,0,0,1,.236.237V134.1c-2.626.123-3.6.147-5.045.191v-6.969A3.444,3.444,0,0,0,69.837,123.884Zm-.328,3.768v6.73c-3.457.06-6.3.071-10.413,0v-6.73Zm11.63-13.868a4.047,4.047,0,0,0-3.053-1.41H50.519a4.055,4.055,0,0,0-3.053,1.41c-29.722-1.734-43.7-7.4-43.7-10.558V98.249c18.884,12.4,102.221,12.377,121.069,0v4.976c0,1.117-2.5,3.668-11.848,6.139C104.947,111.49,93.673,113.052,81.139,113.784Zm43.7-5.064v4.551c0,1.115-2.489,3.661-11.817,6.131-7.839,2.075-18.761,3.615-30.93,4.37V117.5C92.955,116.836,115.8,114.617,124.837,108.719Zm0,14.676h0c0,1.32-3.507,4.544-16.78,7.292A188.58,188.58,0,0,1,82.09,133.9v-6.354c10.81-.661,33.7-2.876,42.747-8.781V123.4Z" transform="translate(0 -35.683)" fill="#fff"/>
      </g>
    </g>
    <g id="Group_2708" data-name="Group 2708" transform="translate(51.33 53.352)">
      <g id="Group_2707" data-name="Group 2707">
        <path id="Path_2767" data-name="Path 2767" d="M210.392,106.031H206.24a1.884,1.884,0,0,0,0,3.768h4.153a1.884,1.884,0,1,0,0-3.768Z" transform="translate(-204.356 -106.031)" fill="#fff"/>
      </g>
    </g>
    <g id="Group_2710" data-name="Group 2710" transform="translate(69.354 53.352)">
      <g id="Group_2709" data-name="Group 2709">
        <path id="Path_2768" data-name="Path 2768" d="M282.149,106.031H278a1.884,1.884,0,1,0,0,3.768h4.153a1.884,1.884,0,0,0,0-3.768Z" transform="translate(-276.113 -106.031)" fill="#fff"/>
      </g>
    </g>
    <g id="Group_2712" data-name="Group 2712" transform="translate(62.001 53.352)">
      <g id="Group_2711" data-name="Group 2711">
        <path id="Path_2769" data-name="Path 2769" d="M249.557,106.031h-.835a1.884,1.884,0,0,0,0,3.768h.835a1.884,1.884,0,0,0,0-3.768Z" transform="translate(-246.838 -106.031)" fill="#fff"/>
      </g>
    </g>
    <g id="Group_2714" data-name="Group 2714" transform="translate(71.013 47.168)">
      <g id="Group_2713" data-name="Group 2713">
        <path id="Path_2770" data-name="Path 2770" d="M285.435,81.408H284.6a1.884,1.884,0,1,0,0,3.768h.835a1.884,1.884,0,0,0,0-3.768Z" transform="translate(-282.716 -81.408)" fill="#fff"/>
      </g>
    </g>
    <g id="Group_2716" data-name="Group 2716" transform="translate(52.989 47.168)">
      <g id="Group_2715" data-name="Group 2715">
        <path id="Path_2771" data-name="Path 2771" d="M213.677,81.408h-.835a1.884,1.884,0,0,0,0,3.768h.835a1.884,1.884,0,0,0,0-3.768Z" transform="translate(-210.958 -81.408)" fill="#fff"/>
      </g>
    </g>
    <g id="Group_2718" data-name="Group 2718" transform="translate(66.791 35.682)">
      <g id="Group_2717" data-name="Group 2717">
        <path id="Path_2772" data-name="Path 2772" d="M281,39.924h-2.42V37.566a1.884,1.884,0,0,0-3.768,0v2.358h-7.021a1.884,1.884,0,0,0,0,3.768h12.632v4.057a1.884,1.884,0,0,0,3.768,0V43.115A3.194,3.194,0,0,0,281,39.924Z" transform="translate(-265.907 -35.682)" fill="#fff"/>
      </g>
    </g>
  </g>
</svg>
