<svg xmlns="http://www.w3.org/2000/svg" viewBox="0 0 255.19 170.02"><defs><style>.cls-1{fill:#fff;}.cls-2{fill:#7fb041;}</style></defs><title>Asset 1</title><g id="Layer_2" data-name="Layer 2"><g id="Layer_1-2" data-name="Layer 1"><path class="cls-1" d="M0,141.77H255.18V0H0Zm249.53-5.66H5.65V5.65H249.53Z"/><rect class="cls-1" x="2.83" y="2.83" width="124.76" height="136.11"/><polygon class="cls-2" points="40.03 115.04 52.27 115.04 52.27 119.06 33.78 119.06 33.78 116.13 45.78 98.84 33.8 98.84 33.8 94.79 52 94.79 52 97.66 40.03 115.04"/><polygon class="cls-2" points="72.07 108.54 62.47 108.54 62.47 115.04 73.73 115.04 73.73 119.06 57.46 119.06 57.46 94.79 73.7 94.79 73.7 98.84 62.47 98.84 62.47 104.62 72.07 104.62 72.07 108.54"/><path class="cls-2" d="M78,119.06V94.79H85.5a11.37,11.37,0,0,1,5.73,1.44,10,10,0,0,1,3.94,4.1,12.7,12.7,0,0,1,1.42,6v1.12a12.79,12.79,0,0,1-1.39,6,9.91,9.91,0,0,1-3.93,4.08,11.4,11.4,0,0,1-5.72,1.47Zm5-20.22V115h2.42a5.46,5.46,0,0,0,4.49-1.91,8.69,8.69,0,0,0,1.58-5.49v-1.28A8.81,8.81,0,0,0,90,100.75a5.44,5.44,0,0,0-4.49-1.91Z"/><polygon class="cls-2" points="88.06 74.33 96.01 71.68 96.01 66.38 88.06 66.38 88.06 74.33"/><polygon class="cls-2" points="42.15 34.06 34.2 39.36 34.2 42.01 42.15 42.01 42.15 34.06"/><polygon class="cls-2" points="96.01 55.6 88.06 55.6 88.06 63.55 96.01 58.26 96.01 55.6"/><polygon class="cls-2" points="77.29 74.33 85.23 69.03 85.23 66.38 77.29 66.38 77.29 74.33"/><polygon class="cls-2" points="42.15 44.83 34.2 50.13 34.2 52.78 42.15 52.78 42.15 44.83"/><polygon class="cls-2" points="52.92 34.06 44.97 39.36 44.97 42.01 52.92 42.01 52.92 34.06"/><polygon class="cls-2" points="88.06 44.83 88.06 52.78 96.01 44.83 88.06 44.83"/><polygon class="cls-2" points="77.29 55.6 77.29 63.55 85.23 55.6 77.29 55.6"/><polygon class="cls-2" points="66.51 74.33 74.46 66.38 66.51 66.38 66.51 74.33"/><polygon class="cls-2" points="42.15 63.55 42.15 55.61 34.2 63.55 42.15 63.55"/><polygon class="cls-2" points="52.92 52.78 52.92 44.83 44.97 52.78 52.92 52.78"/><polygon class="cls-2" points="63.69 34.06 55.74 42.01 63.69 42.01 63.69 34.06"/><rect class="cls-2" x="76.71" y="22.71" width="9.11" height="9.11"/><polygon class="cls-2" points="96.81 22.71 87.48 22.71 87.48 31.82 93.78 31.82 96.81 22.71"/><rect class="cls-2" x="65.93" y="44.25" width="9.11" height="9.11"/><rect class="cls-2" x="55.16" y="55.03" width="9.11" height="9.11"/><rect class="cls-2" x="44.39" y="65.8" width="9.11" height="9.11"/><polygon class="cls-2" points="33.62 85.68 39.92 85.68 42.95 76.57 33.62 76.57 33.62 85.68"/><rect class="cls-2" x="76.71" y="33.48" width="9.11" height="9.11"/><polygon class="cls-2" points="87.48 85.9 96.59 82.87 96.59 76.57 87.48 76.57 87.48 85.9"/><polygon class="cls-2" points="72.23 22.71 65.93 22.71 65.93 31.82 75.27 31.82 72.23 22.71"/><polygon class="cls-2" points="42.73 25.52 33.62 22.48 33.62 31.82 42.73 31.82 42.73 25.52"/><polygon class="cls-2" points="58.7 22.71 55.16 22.71 55.16 31.82 64.78 31.82 58.7 22.71"/><polygon class="cls-2" points="53.5 28.28 44.39 22.21 44.39 31.82 53.5 31.82 53.5 28.28"/><polygon class="cls-2" points="65.93 86.18 75.04 80.11 75.04 76.57 65.93 76.57 65.93 86.18"/><polygon class="cls-2" points="76.71 86.18 85.82 80.11 85.82 76.57 76.71 76.57 76.71 86.18"/><polygon class="cls-2" points="97.09 33.48 87.48 33.48 87.48 42.59 91.02 42.59 97.09 33.48"/><polygon class="cls-2" points="76.71 53.36 80.25 53.36 86.32 44.25 76.71 44.25 76.71 53.36"/><polygon class="cls-2" points="65.93 64.14 69.47 64.14 75.55 55.03 65.93 55.03 65.93 64.14"/><polygon class="cls-2" points="55.16 74.91 58.7 74.91 64.78 65.8 55.16 65.8 55.16 74.91"/><polygon class="cls-2" points="44.39 85.68 47.93 85.68 54.01 76.57 44.39 76.57 44.39 85.68"/><polygon class="cls-2" points="42.73 65.8 39.19 65.8 33.11 74.91 42.73 74.91 42.73 65.8"/><polygon class="cls-2" points="53.5 55.02 49.96 55.02 43.89 64.14 53.5 64.14 53.5 55.02"/><polygon class="cls-2" points="64.27 44.25 60.73 44.25 54.66 53.36 64.27 53.36 64.27 44.25"/><polygon class="cls-2" points="75.04 33.48 71.5 33.48 65.43 42.59 75.04 42.59 75.04 33.48"/><polygon class="cls-2" points="55.16 86.5 65.09 76.57 55.16 76.57 55.16 86.5"/><rect class="cls-2" x="127.59" y="2.83" width="124.76" height="136.11"/><path class="cls-1" d="M146.68,59.19h-6.17v4.32h7.24v2.66H137.3V50.07h10.43v2.69h-7.22v3.83h6.17Z"/><path class="cls-1" d="M153.29,63.51h6.82v2.66h-10V50.07h3.22Z"/><path class="cls-1" d="M174.09,62a1.73,1.73,0,0,0-.64-1.45,8.77,8.77,0,0,0-2.31-1.06,16.25,16.25,0,0,1-2.65-1.1,4.46,4.46,0,0,1-2.65-4,3.94,3.94,0,0,1,.71-2.33,4.67,4.67,0,0,1,2-1.6,7.57,7.57,0,0,1,3-.57,6.79,6.79,0,0,1,3,.62,4.87,4.87,0,0,1,2,1.77,4.71,4.71,0,0,1,.72,2.58h-3.21a2.22,2.22,0,0,0-.68-1.72,2.7,2.7,0,0,0-1.89-.61,2.94,2.94,0,0,0-1.84.51,1.67,1.67,0,0,0-.65,1.36,1.59,1.59,0,0,0,.77,1.32,8.66,8.66,0,0,0,2.25,1,9.71,9.71,0,0,1,4,2.11,4.32,4.32,0,0,1,1.25,3.15,3.94,3.94,0,0,1-1.53,3.28,6.58,6.58,0,0,1-4.13,1.19,7.75,7.75,0,0,1-3.27-.68,5.27,5.27,0,0,1-2.26-1.87,4.86,4.86,0,0,1-.77-2.74h3.22c0,1.78,1,2.66,3.08,2.66a2.93,2.93,0,0,0,1.79-.48A1.58,1.58,0,0,0,174.09,62Z"/><path class="cls-1" d="M192.62,66.17h-3.21v-6.9h-6.27v6.9h-3.21V50.07h3.21v6.52h6.27V50.07h3.21Z"/><path class="cls-1" d="M205.25,59.19h-6.17v4.32h7.24v2.66H195.87V50.07H206.3v2.69h-7.22v3.83h6.17Z"/><path class="cls-1" d="M212,66.17h-3.21V50.07H212Z"/><path class="cls-1" d="M220.34,59.71l-1.67,1.86v4.6h-3.21V50.07h3.21v7.3l1.41-2,4-5.3H228l-5.54,7.15,5.7,9h-3.82Z"/><path class="cls-1" d="M242.51,66.17H239.3v-6.9H233v6.9h-3.21V50.07H233v6.52h6.27V50.07h3.21Z"/><path class="cls-1" d="M140.7,86.17h7.86v2.66H136.69v-2l7.71-11.47h-7.7V72.72h11.69v1.91Z"/><path class="cls-1" d="M160,85.51h-5.63l-1.07,3.32h-3.42l5.81-16.11h3l5.84,16.11H161Zm-4.76-2.69h3.89l-2-6Z"/><path class="cls-1" d="M170.15,80l3.25-7.26h3.51L171.79,83v5.84h-3.27V83l-5.11-10.27h3.52Z"/><path class="cls-1" d="M188.11,81.85h-6.17v4.32h7.24v2.66H178.73V72.72h10.43v2.69h-7.22v3.84h6.17Z"/><path class="cls-1" d="M191.51,88.83V72.72h4.8a7.11,7.11,0,0,1,3.68,1,6.65,6.65,0,0,1,2.53,2.72,8.61,8.61,0,0,1,.91,4v.74a8.63,8.63,0,0,1-.9,4A6.47,6.47,0,0,1,200,87.86a7.18,7.18,0,0,1-3.67,1Zm3.21-13.42V86.17h1.55a3.46,3.46,0,0,0,2.89-1.28,5.86,5.86,0,0,0,1-3.64V80.4a6,6,0,0,0-1-3.72,3.42,3.42,0,0,0-2.88-1.27Z"/><path class="cls-1" d="M9.18,165.64a1.56,1.56,0,0,0-.58-1.3,7.35,7.35,0,0,0-2.07-1,19.62,19.62,0,0,1-2.42-1q-3-1.5-3.05-4.12a3.74,3.74,0,0,1,.76-2.3A5,5,0,0,1,4,154.45a8.39,8.39,0,0,1,3.13-.56,7.24,7.24,0,0,1,3,.61,4.72,4.72,0,0,1,2.08,1.72,4.45,4.45,0,0,1,.75,2.55H9.19a1.9,1.9,0,0,0-.58-1.49A2.33,2.33,0,0,0,7,156.75a2.61,2.61,0,0,0-1.61.45,1.32,1.32,0,0,0,.06,2.23,7.81,7.81,0,0,0,2.28,1,14.08,14.08,0,0,1,2.67,1.13,4.5,4.5,0,0,1,2.55,4,3.84,3.84,0,0,1-1.55,3.24A7,7,0,0,1,7.16,170a8.38,8.38,0,0,1-3.46-.68,5.21,5.21,0,0,1-2.33-1.88,4.88,4.88,0,0,1-.78-2.74H4.38A2.39,2.39,0,0,0,5,166.58a3.07,3.07,0,0,0,2.12.6,2.43,2.43,0,0,0,1.48-.41A1.34,1.34,0,0,0,9.18,165.64Z"/><path class="cls-1" d="M23.11,164.48v5.33H19.33v-15.7h6.26a7.36,7.36,0,0,1,3.19.66,4.93,4.93,0,0,1,2.14,1.89,5.1,5.1,0,0,1,.76,2.77A4.54,4.54,0,0,1,30,163.11a6.86,6.86,0,0,1-4.51,1.37Zm0-2.92h2.48a2.35,2.35,0,0,0,1.68-.55,2.05,2.05,0,0,0,.57-1.55,2.5,2.5,0,0,0-.59-1.76,2.09,2.09,0,0,0-1.62-.67H23.11Z"/><path class="cls-1" d="M45.11,166.88H39.93L39,169.81H35l5.76-15.7h3.55l5.81,15.7H46ZM40.83,164h3.38l-1.7-5.44Z"/><path class="cls-1" d="M61.44,164.26h-2v5.55H55.61v-15.7h6.18a6.88,6.88,0,0,1,4.37,1.24,4.18,4.18,0,0,1,1.57,3.5,5.11,5.11,0,0,1-.66,2.71A4.74,4.74,0,0,1,65,163.31l3.28,6.34v.16h-4Zm-2-2.92h2.39A1.94,1.94,0,0,0,64,159.19a2.24,2.24,0,0,0-.55-1.59,2.13,2.13,0,0,0-1.62-.58H59.4Z"/><path class="cls-1" d="M79.75,164l-1.55,1.71v4.14H74.41v-15.7H78.2V161l1.31-2,3.39-4.93h4.68l-5.31,6.94,5.31,8.76H83.09Z"/><path class="cls-1" d="M113.35,169.81h-3.77v-6.56H104v6.56h-3.79v-15.7H104v6.23h5.57v-6.23h3.77Z"/><path class="cls-1" d="M129.25,166.88h-5.19l-.9,2.93h-4l5.76-15.7h3.56l5.8,15.7h-4.06ZM125,164h3.37l-1.69-5.44Z"/><path class="cls-1" d="M143.53,164.48v5.33h-3.78v-15.7H146a7.36,7.36,0,0,1,3.19.66,5,5,0,0,1,2.15,1.89,5.19,5.19,0,0,1,.76,2.77,4.55,4.55,0,0,1-1.65,3.68,6.86,6.86,0,0,1-4.51,1.37Zm0-2.92H146a2.31,2.31,0,0,0,1.68-.55,2.06,2.06,0,0,0,.58-1.55,2.5,2.5,0,0,0-.6-1.76,2.09,2.09,0,0,0-1.61-.67h-2.53Z"/><path class="cls-1" d="M162.32,164.48v5.33h-3.78v-15.7h6.26a7.33,7.33,0,0,1,3.19.66,5,5,0,0,1,2.15,1.89,5.19,5.19,0,0,1,.76,2.77,4.55,4.55,0,0,1-1.65,3.68,6.84,6.84,0,0,1-4.51,1.37Zm0-2.92h2.48a2.31,2.31,0,0,0,1.68-.55,2,2,0,0,0,.58-1.55,2.55,2.55,0,0,0-.59-1.76,2.12,2.12,0,0,0-1.62-.67h-2.53Z"/><path class="cls-1" d="M181.36,169.81h-3.77v-15.7h3.77Z"/><path class="cls-1" d="M201.52,169.81h-3.76L192.2,160v9.77h-3.79v-15.7h3.79l5.55,9.77v-9.77h3.77Z"/><path class="cls-1" d="M218,163.14h-6v3.76h7v2.91H208.29v-15.7h10.84V157h-7.06v3.31h6Z"/><path class="cls-1" d="M233.16,165.64a1.54,1.54,0,0,0-.59-1.3,7.26,7.26,0,0,0-2.06-1,19.62,19.62,0,0,1-2.42-1q-3-1.5-3.05-4.12a3.74,3.74,0,0,1,.76-2.3,5,5,0,0,1,2.15-1.55,8.39,8.39,0,0,1,3.13-.56,7.24,7.24,0,0,1,3,.61,4.72,4.72,0,0,1,2.08,1.72,4.45,4.45,0,0,1,.75,2.55h-3.78a1.9,1.9,0,0,0-.58-1.49,2.34,2.34,0,0,0-1.6-.53,2.58,2.58,0,0,0-1.6.45,1.32,1.32,0,0,0,.06,2.23,7.81,7.81,0,0,0,2.28,1,14.08,14.08,0,0,1,2.67,1.13,4.5,4.5,0,0,1,2.55,4,3.82,3.82,0,0,1-1.56,3.24,6.91,6.91,0,0,1-4.26,1.17,8.37,8.37,0,0,1-3.45-.68,5.21,5.21,0,0,1-2.33-1.88,4.88,4.88,0,0,1-.78-2.74h3.79a2.39,2.39,0,0,0,.66,1.86,3.06,3.06,0,0,0,2.11.6,2.46,2.46,0,0,0,1.49-.41A1.34,1.34,0,0,0,233.16,165.64Z"/><path class="cls-1" d="M251.4,165.64a1.56,1.56,0,0,0-.58-1.3,7.35,7.35,0,0,0-2.07-1,19.4,19.4,0,0,1-2.41-1q-3.06-1.5-3.06-4.12A3.74,3.74,0,0,1,244,156a5,5,0,0,1,2.16-1.55,8.3,8.3,0,0,1,3.12-.56,7.24,7.24,0,0,1,3,.61,4.81,4.81,0,0,1,2.09,1.72,4.52,4.52,0,0,1,.74,2.55h-3.78a1.9,1.9,0,0,0-.58-1.49,2.33,2.33,0,0,0-1.59-.53,2.61,2.61,0,0,0-1.61.45,1.32,1.32,0,0,0,.06,2.23,7.94,7.94,0,0,0,2.28,1,14.08,14.08,0,0,1,2.67,1.13,4.5,4.5,0,0,1,2.55,4,3.84,3.84,0,0,1-1.55,3.24,7,7,0,0,1-4.26,1.17,8.38,8.38,0,0,1-3.46-.68,5.21,5.21,0,0,1-2.33-1.88,4.88,4.88,0,0,1-.78-2.74h3.8a2.39,2.39,0,0,0,.65,1.86,3.07,3.07,0,0,0,2.12.6,2.43,2.43,0,0,0,1.48-.41A1.34,1.34,0,0,0,251.4,165.64Z"/></g></g></svg>